<?xml version="1.0" encoding="utf-8"?>
<!-- Generator: Adobe Illustrator 15.0.0, SVG Export Plug-In . SVG Version: 6.00 Build 0)  -->
<!DOCTYPE svg PUBLIC "-//W3C//DTD SVG 1.1//EN" "http://www.w3.org/Graphics/SVG/1.1/DTD/svg11.dtd">
<svg version="1.1" id="Layer_1" xmlns="http://www.w3.org/2000/svg" xmlns:xlink="http://www.w3.org/1999/xlink" x="0px" y="0px"
	 width="16px" height="16px" viewBox="0 0 16 16" enable-background="new 0 0 16 16" xml:space="preserve">
<path fill="#385072" d="M10,15H8H1.2C1.1,15,1,14.9,1,14.7V1.2C1,1.1,1.1,1,1.2,1H9v4h4v4h1V5.2c0-0.7-0.4-1.6-0.9-2.1L10.9,0.9
	C10.4,0.4,9.4,0,8.8,0H1.2C0.6,0,0,0.6,0,1.2v13.5C0,15.4,0.6,16,1.2,16H10V15z M10,1.4c0.1,0,2.5,2.5,2.6,2.6H10V1.4z M15,14h-2v2
	h-2v-2H9v-2h2v-2h2v2h2V14z"/>
</svg>
