<?xml version="1.0" encoding="utf-8"?>
<!-- Generator: Adobe Illustrator 15.0.0, SVG Export Plug-In . SVG Version: 6.00 Build 0)  -->
<!DOCTYPE svg PUBLIC "-//W3C//DTD SVG 1.1//EN" "http://www.w3.org/Graphics/SVG/1.1/DTD/svg11.dtd">
<svg version="1.1" id="Layer_1" xmlns="http://www.w3.org/2000/svg" xmlns:xlink="http://www.w3.org/1999/xlink" x="0px" y="0px"
	 width="16px" height="16px" viewBox="0 0 16 16" enable-background="new 0 0 16 16" xml:space="preserve">
<path fill="#385072" d="M2.3,4.8L6.7,4c0.8,1.2,1.4,2.6,1.7,4.1c0.8-1.1,1.4-2,1.9-2.5c0.601-0.7,1-1.1,1.4-1.3
	C12.1,4.1,12.5,4,12.9,4c0.5,0,0.8,0.1,1.1,0.4c0.2,0.3,0.4,0.6,0.4,1S14.3,6.1,14,6.4c-0.2,0.3-0.6,0.4-0.9,0.4
	c-0.3,0-0.6,0-0.899-0.1c-0.3-0.1-0.601-0.1-0.7-0.1c-0.4,0-0.7,0.1-1,0.4C9.9,7.3,9.3,8,8.7,9.1c0.7,2.5,1.3,4,1.7,4.601
	c0.3,0.3,0.5,0.5,0.8,0.5c0.2,0,0.399-0.101,0.6-0.2c0.2-0.2,0.601-0.6,1.101-1.3l0.5,0.3c-0.7,1.2-1.5,2-2.2,2.5
	c-0.5,0.4-1.101,0.6-1.601,0.6S8.6,16,8.3,15.7c-0.4-0.2-0.7-0.601-0.9-1.2c-0.3-0.5-0.6-1.4-1-2.6C5.4,13.1,4.7,14.1,4.1,14.6
	c-0.6,0.601-1,0.9-1.4,1.101C2.3,15.9,1.8,16,1.4,16s-0.8-0.1-1-0.4C0.2,15.3,0,15.1,0,14.7c0-0.4,0.1-0.8,0.4-1.101
	C0.7,13.3,1,13.2,1.5,13.2c0.2,0,0.5,0.1,0.8,0.2C2.7,13.6,3,13.7,3.2,13.7c0.2,0,0.5-0.101,0.7-0.2c0.3-0.1,0.6-0.4,1-0.8
	C5,12.5,5.4,12,6,11.1c-0.8-3-1.4-4.8-1.9-5.3c-0.2-0.4-0.6-0.6-1-0.6c-0.2,0-0.5,0-0.8,0.1V4.8z M6.5,0h7.3L13,2.6H5.7L6.5,0z"/>
</svg>
