<?xml version="1.0" encoding="utf-8"?>
<!-- Generator: Adobe Illustrator 15.0.0, SVG Export Plug-In . SVG Version: 6.00 Build 0)  -->
<!DOCTYPE svg PUBLIC "-//W3C//DTD SVG 1.1//EN" "http://www.w3.org/Graphics/SVG/1.1/DTD/svg11.dtd">
<svg version="1.1" id="Layer_1" xmlns="http://www.w3.org/2000/svg" xmlns:xlink="http://www.w3.org/1999/xlink" x="0px" y="0px"
	 width="16px" height="16px" viewBox="0 0 16 16" enable-background="new 0 0 16 16" xml:space="preserve">
<path fill="#385072" d="M14,0H1C0.5,0,0,0.5,0,1v14c0,0.5,0.5,1,1,1h13c0.5,0,1-0.5,1-1V1C15,0.5,14.5,0,14,0z M4,14H2v-2h2V14z
	 M4,11H2V9h2V11z M4,8H2V6h2V8z M7,14H5v-2h2V14z M7,11H5V9h2V11z M7,8H5V6h2V8z M10,14H8v-2h2V14z M10,11H8V9h2V11z M10,8H8V6h2V8z
	 M13,14h-2V9h2V14z M13,8h-2V6h2V8z M13,5H2V2h11V5z"/>
</svg>
