<?xml version="1.0" encoding="utf-8"?>
<!-- Generator: Adobe Illustrator 15.0.0, SVG Export Plug-In . SVG Version: 6.00 Build 0)  -->
<!DOCTYPE svg PUBLIC "-//W3C//DTD SVG 1.1//EN" "http://www.w3.org/Graphics/SVG/1.1/DTD/svg11.dtd">
<svg version="1.1" id="Layer_1" xmlns="http://www.w3.org/2000/svg" xmlns:xlink="http://www.w3.org/1999/xlink" x="0px" y="0px"
	 width="16px" height="16px" viewBox="0 0 16 16" enable-background="new 0 0 16 16" xml:space="preserve">
<path fill="#385072" d="M6,13.7c0-0.101-0.6-0.2-0.9-0.4l-1.8,1.2C2.6,14,2,13.4,1.5,12.6l1.2-1.8C2.5,10.4,2.3,10,2.2,9.6L0.1,9.3
	C0,8.9,0,8.4,0,8s0-0.9,0.1-1.3l2.1-0.4c0.1-0.4,0.3-0.8,0.5-1.2L1.5,3.4C2,2.6,2.6,2,3.4,1.5l1.8,1.2C5.6,2.5,6,2.3,6.4,2.2
	l0.4-2.1C7.1,0,7.6,0,8,0s0.9,0,1.3,0.1l0.4,2.1c0.399,0.1,0.8,0.3,1.2,0.5l1.8-1.2C13.4,2,14,2.6,14.5,3.4l-1.2,1.8
	c0.2,0.4,0.4,0.8,0.5,1.2L15.9,6.8C16,7.1,16,7.6,16,8s0,0.9-0.1,1.3L15.5,9.4C15.4,8.6,15,7.8,14.4,7.2C13.6,6.4,12.6,6,11.6,6
	c-0.8,0-1.5,0.2-2.1,0.6C9.1,6.2,8.6,6,8,6C6.9,6,6.1,6.9,6.1,8c0,1,0.6,1.7,1.5,1.9V10.1c-0.4,0.101-0.7,0.301-1,0.5
	C6.2,11,6,11.5,6,12V13.7z M14.5,10v1H15c0.5,0,1,0.5,1,1v3c0,0.5-0.5,1-1,1H8c-0.5,0-1-0.5-1-1v-3c0-0.5,0.4-1,1-1h0.6v-1
	c0-1.6,1.301-3,2.9-3C13.2,7,14.5,8.4,14.5,10z M11.5,12c-0.5,0-1,0.4-1,1c0,0.4,0.2,0.7,0.6,0.9L11,14l-0.5,1h1h1L12,14v-0.1
	c0.3-0.2,0.6-0.5,0.6-0.9C12.5,12.5,12.1,12,11.5,12z M11.5,9c-0.5,0-1,0.4-1,1v1h1.9v-1C12.5,9.5,12.1,9,11.5,9z"/>
</svg>
