<?xml version="1.0" encoding="utf-8"?>
<!-- Generator: Adobe Illustrator 15.0.0, SVG Export Plug-In . SVG Version: 6.00 Build 0)  -->
<!DOCTYPE svg PUBLIC "-//W3C//DTD SVG 1.1//EN" "http://www.w3.org/Graphics/SVG/1.1/DTD/svg11.dtd">
<svg version="1.1" id="Layer_1" xmlns="http://www.w3.org/2000/svg" xmlns:xlink="http://www.w3.org/1999/xlink" x="0px" y="0px"
	 width="16px" height="16px" viewBox="0 0 16 16" enable-background="new 0 0 16 16" xml:space="preserve">
<path fill="#385072" d="M12,11c0,1.2,0,2,0,2c0,1-2.7,1.9-6,1.9S0,14.1,0,13c0,0,0-0.8,0-2c0,1,2.7,1.9,6,1.9S12,12.1,12,11z M6,9.9
	C2.7,9.9,0,9.1,0,8c0,1.2,0,2,0,2c0,1,2.7,1.9,6,1.9s6-0.801,6-1.9c0,0,0-0.8,0-2C12,9.1,9.3,9.9,6,9.9z M6,6.9C2.7,6.9,0,6.1,0,5
	c0,1.2,0,2,0,2c0,1,2.7,1.9,6,1.9s6-0.8,6-1.9c0,0,0-0.8,0-2C12,6.1,9.3,6.9,6,6.9z M12,1.9C12,0.8,9.3,0,6,0S0,0.8,0,1.9V4
	c0,1,2.7,1.9,6,1.9s6-0.8,6-1.9V1.9z"/>
</svg>
