<?xml version="1.0" encoding="utf-8"?>
<!-- Generator: Adobe Illustrator 15.0.0, SVG Export Plug-In . SVG Version: 6.00 Build 0)  -->
<!DOCTYPE svg PUBLIC "-//W3C//DTD SVG 1.1//EN" "http://www.w3.org/Graphics/SVG/1.1/DTD/svg11.dtd">
<svg version="1.1" id="Layer_1" xmlns="http://www.w3.org/2000/svg" xmlns:xlink="http://www.w3.org/1999/xlink" x="0px" y="0px"
	 width="16px" height="16px" viewBox="0 0 16 16" enable-background="new 0 0 16 16" xml:space="preserve">
<path fill="#385072" d="M15.6,7.3L14.9,6.6c-0.4-0.4-1.101-0.4-1.4,0l-4,4V1c0-0.5-0.4-1-1-1h-1c-0.5,0-1,0.5-1,1v9.6l-4-4
	C2,6.2,1.4,6.2,1,6.6L0.3,7.3c-0.4,0.4-0.4,1,0,1.4l7,7c0.4,0.399,1,0.399,1.4,0L9.4,15l0,0L15.6,8.8C16,8.4,16,7.7,15.6,7.3z"/>
</svg>
