<?xml version="1.0" encoding="utf-8"?>
<!-- Generator: Adobe Illustrator 15.0.0, SVG Export Plug-In . SVG Version: 6.00 Build 0)  -->
<!DOCTYPE svg PUBLIC "-//W3C//DTD SVG 1.1//EN" "http://www.w3.org/Graphics/SVG/1.1/DTD/svg11.dtd">
<svg version="1.1" id="Layer_1" xmlns="http://www.w3.org/2000/svg" xmlns:xlink="http://www.w3.org/1999/xlink" x="0px" y="0px"
	 width="16px" height="16px" viewBox="0 0 16 16" enable-background="new 0 0 16 16" xml:space="preserve">
<path fill="#385072" d="M15.7,7.3l-2.5-2.5c-0.4-0.4-0.7-0.3-0.7,0.3v1.6h-3v-3H11c0.5,0,0.7-0.3,0.3-0.7L8.7,0.3
	c-0.4-0.4-1-0.4-1.4,0L4.8,2.9C4.4,3.2,4.5,3.6,5,3.6h1.5v3h-3V5c0-0.5-0.3-0.7-0.7-0.3L0.3,7.3c-0.4,0.4-0.4,1,0,1.4l2.5,2.5
	c0.4,0.399,0.7,0.3,0.7-0.3V9.6h3v3H5c-0.5,0-0.7,0.2-0.3,0.601l2.5,2.5c0.4,0.399,1,0.399,1.399,0l2.601-2.5
	c0.399-0.4,0.3-0.601-0.3-0.601H9.5v-3h3V11c0,0.5,0.3,0.7,0.7,0.3l2.5-2.5C16.1,8.3,16.1,7.7,15.7,7.3z"/>
</svg>
