<?xml version="1.0" encoding="utf-8"?>
<!-- Generator: Adobe Illustrator 15.0.0, SVG Export Plug-In . SVG Version: 6.00 Build 0)  -->
<!DOCTYPE svg PUBLIC "-//W3C//DTD SVG 1.1//EN" "http://www.w3.org/Graphics/SVG/1.1/DTD/svg11.dtd">
<svg version="1.1" id="Layer_1" xmlns="http://www.w3.org/2000/svg" xmlns:xlink="http://www.w3.org/1999/xlink" x="0px" y="0px"
	 width="16px" height="16px" viewBox="0 0 16 16" enable-background="new 0 0 16 16" xml:space="preserve">
<path fill="#385072" d="M3,16H0v-4l3.2-1.7C3.6,10,3.8,9.5,3.4,9C3.4,9,2,7.2,2,5.2C2,2.3,3.8,0,6,0c0.4,0,0.7,0.1,1.1,0.2
	c-1.2,1.1-2,3-2,5c0,1.7,0.6,2.7,1,3.5C6.7,9.6,6.2,9.7,5.8,10C5.6,10.1,3,11.4,3,11.4V16z M16,11.9L12.9,10.3
	C12.4,10,12.3,9.4,12.6,9c0,0,1.4-1.8,1.4-3.8C14,2.3,12.2,0,10,0S6,2.3,6,5.2C6,7.2,7.5,9,7.5,9c0.3,0.4,0.2,1-0.3,1.3L4,12v4h12
	V11.9z"/>
</svg>
