<?xml version="1.0" encoding="utf-8"?>
<!-- Generator: Adobe Illustrator 15.0.0, SVG Export Plug-In . SVG Version: 6.00 Build 0)  -->
<!DOCTYPE svg PUBLIC "-//W3C//DTD SVG 1.1//EN" "http://www.w3.org/Graphics/SVG/1.1/DTD/svg11.dtd">
<svg version="1.1" id="Layer_1" xmlns="http://www.w3.org/2000/svg" xmlns:xlink="http://www.w3.org/1999/xlink" x="0px" y="0px"
	 width="16px" height="16px" viewBox="0 0 16 16" enable-background="new 0 0 16 16" xml:space="preserve">
<path fill="#385072" d="M4.4,13H0V9.9L2.2,8.6c0.4-0.2,0.4-0.6,0.1-1c0,0-1.3-1.5-1.3-3.2C1,2,2.5,0,4.4,0s3.4,2,3.4,4.4
	c0,1.7-1.2,3.2-1.2,3.2C6.3,8,6.4,8.4,6.8,8.6L7.9,9.2c0.3,0.6,0.6,1.1,0.8,1.399L4.4,13L4.4,13z M16,12.2l-1.9-1
	c-0.399-0.2-0.5-0.7-0.199-1c0,0,1.199-1.5,1.199-3.2c0-2.4-1.5-4.4-3.399-4.4c-1.9,0-3.4,2-3.4,4.4c0,1.7,1.3,3.2,1.3,3.2
	C9.9,10.6,9.9,11,9.5,11.3l-4.1,2.3V16H16V12.2z"/>
</svg>
