<?xml version="1.0" encoding="utf-8"?>
<!-- Generator: Adobe Illustrator 15.0.0, SVG Export Plug-In . SVG Version: 6.00 Build 0)  -->
<!DOCTYPE svg PUBLIC "-//W3C//DTD SVG 1.1//EN" "http://www.w3.org/Graphics/SVG/1.1/DTD/svg11.dtd">
<svg version="1.1" id="Layer_1" xmlns="http://www.w3.org/2000/svg" xmlns:xlink="http://www.w3.org/1999/xlink" x="0px" y="0px"
	 width="16px" height="16px" viewBox="0 0 16 16" enable-background="new 0 0 16 16" xml:space="preserve">
<path fill="#385072" d="M5.9,15c0,0.3,0.1,1,0.3,1H0.6c-0.5,0-0.8-0.4-0.5-0.9L1.7,12H6l0,0v3H5.9z M4.2,7l-2,4h4.1
	c0.1-0.2,0.2-0.3,0.4-0.5C7,10.2,7.5,10,7.5,10c0-1.2,0.3-2.1,1.3-3c0,0,0,0,0.101-0.1H4.2V7z M11.3,6L8.4,0.4
	c-0.2-0.5-0.7-0.5-0.9,0L4.7,6H11.3z M14.4,10v1H15c0.5,0,1,0.5,1,1v3c0,0.5-0.5,1-1,1H8c-0.5,0-1-0.5-1-1v-3c0-0.5,0.4-1,1-1h0.6
	v-1c0-1.6,1.301-3,2.9-3S14.4,8.3,14.4,10z M11.5,12c-0.5,0-1,0.4-1,1c0,0.4,0.2,0.7,0.6,0.9L11,14l-0.5,1h1h1L12,14l-0.1-0.1
	c0.3-0.2,0.6-0.5,0.6-0.9C12.5,12.5,12,12,11.5,12z M11.5,9c-0.5,0-1,0.4-1,1v1h1.9v-1C12.4,9.4,12,9,11.5,9z"/>
</svg>
