<?xml version="1.0" encoding="utf-8"?>
<!-- Generator: Adobe Illustrator 15.0.0, SVG Export Plug-In . SVG Version: 6.00 Build 0)  -->
<!DOCTYPE svg PUBLIC "-//W3C//DTD SVG 1.1//EN" "http://www.w3.org/Graphics/SVG/1.1/DTD/svg11.dtd">
<svg version="1.1" id="Layer_1" xmlns="http://www.w3.org/2000/svg" xmlns:xlink="http://www.w3.org/1999/xlink" x="0px" y="0px"
	 width="16px" height="16px" viewBox="0 0 16 16" enable-background="new 0 0 16 16" xml:space="preserve">
<path fill="#385072" d="M8,0C3.6,0,0,3.6,0,8c0,4.4,3.6,8,8,8c4.4,0,8-3.6,8-8C16,3.6,12.4,0,8,0z M8,14c-3.3,0-6-2.7-6-6s2.7-6,6-6
	s6,2.7,6,6S11.3,14,8,14z M9.2,12c0,0.5-0.5,1-1,1H7.8c-0.5,0-1-0.5-1-1V7.4c0-0.5,0.5-1,1-1h0.5c0.5,0,1,0.5,1,1V12H9.2z M9.2,4.2
	C9.2,4.9,8.6,5.4,8,5.4c-0.7,0-1.2-0.6-1.2-1.2C6.8,3.5,7.3,3,8,3S9.2,3.5,9.2,4.2z"/>
</svg>
