<?xml version="1.0" encoding="utf-8"?>
<!-- Generator: Adobe Illustrator 15.0.0, SVG Export Plug-In . SVG Version: 6.00 Build 0)  -->
<!DOCTYPE svg PUBLIC "-//W3C//DTD SVG 1.1//EN" "http://www.w3.org/Graphics/SVG/1.1/DTD/svg11.dtd">
<svg version="1.1" id="Layer_1" xmlns="http://www.w3.org/2000/svg" xmlns:xlink="http://www.w3.org/1999/xlink" x="0px" y="0px"
	 width="16px" height="16px" viewBox="0 0 16 16" enable-background="new 0 0 16 16" xml:space="preserve">
<path fill="#385072" d="M5,0H1C0.5,0,0,0.5,0,1v4c0,0.5,0.5,1,1,1h4c0.5,0,1-0.5,1-1V1C6,0.5,5.5,0,5,0z M4,3.5C4,3.8,3.8,4,3.5,4
	h-1C2.2,4,2,3.8,2,3.5v-1C2,2.2,2.2,2,2.5,2h1C3.8,2,4,2.2,4,2.5V3.5z"/>
</svg>
