<?xml version="1.0" encoding="utf-8"?>
<!-- Generator: Adobe Illustrator 15.0.0, SVG Export Plug-In . SVG Version: 6.00 Build 0)  -->
<!DOCTYPE svg PUBLIC "-//W3C//DTD SVG 1.1//EN" "http://www.w3.org/Graphics/SVG/1.1/DTD/svg11.dtd">
<svg version="1.1" id="Layer_1" xmlns="http://www.w3.org/2000/svg" xmlns:xlink="http://www.w3.org/1999/xlink" x="0px" y="0px"
	 width="16px" height="16px" viewBox="0 0 16 16" enable-background="new 0 0 16 16" xml:space="preserve">
<path fill="#385072" d="M15,5.2V15c0,0.5-0.5,1-1,1H1c-0.5,0-1-0.5-1-1V2c0-0.5,0.5-1,1-1h9.8l-2,2H3C2.5,3,2,3.4,2,4v9
	c0,0.5,0.5,1,1,1h9c0.5,0,1-0.5,1-1V7.2L15,5.2z M15.4,0.6L15.4,0.6C14.6-0.2,13.3-0.2,12.6,0.6l-1,1L14.4,4.4l1-1
	C16.2,2.6,16.2,1.4,15.4,0.6z M10.6,2.6L4,9.1V12h2.8l1.8-1.8L13.4,5.4L10.6,2.6z"/>
</svg>
