<?xml version="1.0" encoding="utf-8"?>
<!-- Generator: Adobe Illustrator 15.0.0, SVG Export Plug-In . SVG Version: 6.00 Build 0)  -->
<!DOCTYPE svg PUBLIC "-//W3C//DTD SVG 1.1//EN" "http://www.w3.org/Graphics/SVG/1.1/DTD/svg11.dtd">
<svg version="1.1" id="Layer_1" xmlns="http://www.w3.org/2000/svg" xmlns:xlink="http://www.w3.org/1999/xlink" x="0px" y="0px"
	 width="16px" height="16px" viewBox="0 0 16 16" enable-background="new 0 0 16 16" xml:space="preserve">
<path fill="#385072" d="M4.2,15L9.6,14.6c-0.199,0.5-0.5,1.2-0.8,1.2c0,0-0.7,0.2-2,0.2c-1.3,0-2-0.2-2-0.2
	C4.6,15.8,4.4,15.5,4.2,15z M3.9,14.1L3.9,14.1l6-0.5c0.1-0.3,0.3-0.8,0.5-1l-6.8,0.5C3.8,13.6,3.9,14.1,3.9,14.1z M13.7,6.8
	c0,1.8-1.3,3.601-2.3,4.601L2.9,12.1C2.2,11.5,0,9.1,0,6.8C0,3.1,3.1,0,6.8,0C10.6,0,13.7,3.1,13.7,6.8z M7,3.1
	C6.4,2.5,5.2,2.7,4.3,3.6C3.4,4.5,3.1,5.7,3.7,6.3c0.6,0.6,1.8,0.3,2.7-0.6C7.3,4.8,7.6,3.7,7,3.1z"/>
</svg>
