<?xml version="1.0" encoding="utf-8"?>
<!-- Generator: Adobe Illustrator 15.0.0, SVG Export Plug-In . SVG Version: 6.00 Build 0)  -->
<!DOCTYPE svg PUBLIC "-//W3C//DTD SVG 1.1//EN" "http://www.w3.org/Graphics/SVG/1.1/DTD/svg11.dtd">
<svg version="1.1" id="Layer_1" xmlns="http://www.w3.org/2000/svg" xmlns:xlink="http://www.w3.org/1999/xlink" x="0px" y="0px"
	 width="16px" height="16px" viewBox="0 0 16 16" enable-background="new 0 0 16 16" xml:space="preserve">
<path fill="#385072" d="M13.8,5.9c-1.2-1.2-3.1-1.2-4.2,0C9.2,6.2,9,6.6,8.9,7H6.6L5.3,4.9c0.9-1.2,0.9-2.9-0.2-4
	C4-0.3,2-0.3,0.9,0.9c-1.2,1.2-1.2,3.1,0,4.2c0.7,0.7,1.8,1,2.8,0.8L4.8,8l-1.2,2c-1-0.2-2,0-2.8,0.8C-0.4,12-0.4,13.9,0.8,15
	C2,16.2,3.9,16.2,5,15c1.1-1.1,1.2-2.8,0.2-4l1.4-2h2.3C9,9,9.2,9.8,9.6,10.1c1.2,1.2,3.101,1.2,4.2,0C15,8.9,15,7,13.8,5.9z"/>
</svg>
