<?xml version="1.0" encoding="utf-8"?>
<!-- Generator: Adobe Illustrator 15.0.0, SVG Export Plug-In . SVG Version: 6.00 Build 0)  -->
<!DOCTYPE svg PUBLIC "-//W3C//DTD SVG 1.1//EN" "http://www.w3.org/Graphics/SVG/1.1/DTD/svg11.dtd">
<svg version="1.1" id="Layer_1" xmlns="http://www.w3.org/2000/svg" xmlns:xlink="http://www.w3.org/1999/xlink" x="0px" y="0px"
	 width="12px" height="12px" viewBox="0 0 12 12" enable-background="new 0 0 12 12" xml:space="preserve">
<path fill="#385072" d="M11.6,5.2L9.8,3.5C9.4,3.1,8.9,3.3,8.9,3.8v1.1h-2v-2H8c0.5,0,0.7-0.5,0.3-0.9L6.6,0.3
	C6.2-0.1,5.6-0.1,5.2,0.3L3.5,2.1C3.1,2.5,3.3,2.9,3.8,2.9h1.1v2h-2V3.8c0-0.5-0.5-0.7-0.9-0.3L0.3,5.2c-0.4,0.4-0.4,1,0,1.399
	l1.8,1.7C2.5,8.7,2.9,8.6,2.9,8V6.9h2v2H3.8C3.3,8.9,3.1,9.4,3.5,9.8l1.7,1.8c0.4,0.4,1,0.4,1.399,0l1.7-1.8C8.7,9.4,8.6,9,8,9H6.9
	V7h2v1.1C8.9,8.6,9.4,8.8,9.8,8.4l1.8-1.7C12,6.3,12,5.6,11.6,5.2z"/>
</svg>
