<?xml version="1.0" encoding="utf-8"?>
<!-- Generator: Adobe Illustrator 15.0.0, SVG Export Plug-In . SVG Version: 6.00 Build 0)  -->
<!DOCTYPE svg PUBLIC "-//W3C//DTD SVG 1.1//EN" "http://www.w3.org/Graphics/SVG/1.1/DTD/svg11.dtd">
<svg version="1.1" id="Layer_1" xmlns="http://www.w3.org/2000/svg" xmlns:xlink="http://www.w3.org/1999/xlink" x="0px" y="0px"
	 width="16px" height="16px" viewBox="0 0 16 16" enable-background="new 0 0 16 16" xml:space="preserve">
<path fill="#385072" d="M11,0C8.3,0,6,2.2,6,5c0,0.4,0.1,0.9,0.2,1.3L0,12.5v2.1L6.9,7.7C6.9,7.8,7,7.9,7,8l-7,7v1h2v-1h2v-2h2l0,0
	v-2h2l1.3-1.3C9.9,9.8,10.4,10,11,10c2.8,0,5-2.2,5-5S13.8,0,11,0z M12.5,2C13.3,2,14,2.7,14,3.5S13.3,5,12.5,5S11,4.3,11,3.5
	S11.7,2,12.5,2z"/>
</svg>
