<?xml version="1.0" encoding="utf-8"?>
<!-- Generator: Adobe Illustrator 15.0.0, SVG Export Plug-In . SVG Version: 6.00 Build 0)  -->
<!DOCTYPE svg PUBLIC "-//W3C//DTD SVG 1.1//EN" "http://www.w3.org/Graphics/SVG/1.1/DTD/svg11.dtd">
<svg version="1.1" id="Layer_1" xmlns="http://www.w3.org/2000/svg" xmlns:xlink="http://www.w3.org/1999/xlink" x="0px" y="0px"
	 width="16px" height="16px" viewBox="0 0 16 16" enable-background="new 0 0 16 16" xml:space="preserve">
<path fill="#385072" d="M2.4,9C2.4,9,1,7.2,1,5.2C1,2.3,2.8,0,5,0s4,2.3,4,5.2C9,7.2,7.6,9,7.6,9c-0.3,0.3-0.2,0.7,0,1
	c-0.4,0.1-0.7,0.3-1,0.5C6.2,10.9,6,11.4,6,12v3c0,0.3,0.1,0.7,0.3,1H0v-4.5l2.2-1.2C2.7,10,2.8,9.5,2.4,9z M14.5,10v1H15
	c0.5,0,1,0.5,1,1v3c0,0.5-0.5,1-1,1H8c-0.5,0-1-0.5-1-1v-3c0-0.5,0.4-1,1-1h0.6v-1c0-1.6,1.301-3,2.9-3C13.2,7,14.5,8.3,14.5,10z
	 M11.5,12c-0.5,0-1,0.4-1,1c0,0.4,0.2,0.7,0.6,0.9L11,14l-0.5,1h1h1L12,14v-0.1c0.3-0.2,0.6-0.5,0.6-0.9C12.5,12.4,12.1,12,11.5,12z
	 M11.5,9c-0.5,0-1,0.4-1,1v1h1.9v-1C12.5,9.4,12.1,9,11.5,9z"/>
</svg>
