<?xml version="1.0" encoding="utf-8"?>
<!-- Generator: Adobe Illustrator 15.0.0, SVG Export Plug-In . SVG Version: 6.00 Build 0)  -->
<!DOCTYPE svg PUBLIC "-//W3C//DTD SVG 1.1//EN" "http://www.w3.org/Graphics/SVG/1.1/DTD/svg11.dtd">
<svg version="1.1" id="Layer_1" xmlns="http://www.w3.org/2000/svg" xmlns:xlink="http://www.w3.org/1999/xlink" x="0px" y="0px"
	 width="16px" height="16px" viewBox="0 0 16 16" enable-background="new 0 0 16 16" xml:space="preserve">
<path fill="#385072" d="M15.5,13.4L13.4,11.3C13.2,11.1,13,11,12.7,10.9C13.5,9.8,14,8.5,14,7c0-3.9-3.1-7-7-7C3.1,0,0,3.1,0,7
	c0,3.9,3.1,7,7,7c1.5,0,2.8-0.5,4-1.2c0.1,0.3,0.2,0.5,0.4,0.7l2.1,2.1c0.6,0.601,1.5,0.601,2.1,0C16.2,15,16.1,14,15.5,13.4z M7,11
	c-2.2,0-4-1.8-4-4s1.8-4,4-4s4,1.8,4,4S9.2,11,7,11z"/>
</svg>
