<?xml version="1.0" encoding="utf-8"?>
<!-- Generator: Adobe Illustrator 15.0.0, SVG Export Plug-In . SVG Version: 6.00 Build 0)  -->
<!DOCTYPE svg PUBLIC "-//W3C//DTD SVG 1.1//EN" "http://www.w3.org/Graphics/SVG/1.1/DTD/svg11.dtd">
<svg version="1.1" id="Layer_1" xmlns="http://www.w3.org/2000/svg" xmlns:xlink="http://www.w3.org/1999/xlink" x="0px" y="0px"
	 width="16px" height="16px" viewBox="0 0 16 16" enable-background="new 0 0 16 16" xml:space="preserve">
<path fill="#385072" d="M14.7,12.3C14.7,12.2,14.7,12.2,14.7,12.3c0.2-0.399,0.399-0.6,0.5-0.899c0-0.101,0-0.101,0.1-0.2
	c0.101-0.3,0.3-0.601,0.4-1V10.1c0.1-0.3,0.1-0.6,0.2-0.899c0-0.101,0-0.2,0-0.3c0-0.301,0.1-0.7,0.1-1c0-4.4-3.6-8-8-8
	C3.6,0,0,3.6,0,8c0,4.4,3.4,8,7.8,8h0.1c0,0,0,0,0.1,0h0.1c0.1,0,0.3,0,0.4,0c0.2,0,0.3,0,0.5,0s0.4,0,0.5-0.1
	c0.7-0.101,1.3-0.4,1.9-0.7l0,0l0,0c0.699-0.3,1.3-0.7,1.8-1.2l0,0C13.8,13.4,14.3,12.9,14.7,12.3z M9.7,13.7
	C9.6,13.7,9.6,13.6,9.5,13.6c-0.3-0.1-0.7-0.199-0.8-0.5c0-0.1,0-0.3,0-0.399c0-0.101,0.2-0.2,0.2-0.3C8.9,12.3,8.8,12.1,8.8,12
	s0-0.3,0.101-0.4C9,11.5,9.2,10.8,9.4,11c0,0,0.3,0.2,0.5,0.3c0.1,0,0.199,0,0.399-0.1c0.101,0,0.3,0,0.4,0c0.1,0,0.2,0.1,0.3,0.1
	s0.3,0,0.4-0.1c0.3,0,0.3,0.1,0.5,0.3c0.1,0,0.3,0,0.399,0.1C12.5,11.7,12.4,11.7,12.5,11.9c0,0,0,0,0.1,0.1
	C11.7,12.7,10.8,13.4,9.7,13.7z M3.2,5c0-0.2-0.1-0.3-0.1-0.5C4,3.3,5.4,2.4,6.9,2.1c0,0,0,0-0.1,0.1c-0.1,0.3,0.5,0,0.6,0.2
	c0,0.1-0.3,0.1-0.3,0.1c-0.1,0-0.2,0-0.4,0c0,0.1-0.1,0.2-0.2,0.3c0,0.1-0.2,0.2-0.2,0.4c0,0.3,0.4,0.4,0.6,0.4c0.2,0,0.3-0.1,0.5,0
	c0.2,0,0,0.2,0.2,0.2c0.1-0.1,0.1-0.2,0.2-0.3C7.9,3.3,8,3.2,7.9,3.1c0-0.1-0.1,0-0.1-0.1l0.1-0.1c0-0.1,0-0.2,0-0.3
	c0.2,0,0.4,0,0.6,0c0.1,0,0.1,0,0.2,0c0.1,0.1,0,0.2,0.2,0.1C8.9,2.6,9,2.4,9.1,2.4C9.2,2.4,9.3,2.5,9.4,2.6
	C9.5,2.7,9.6,2.7,9.7,2.8c0,0.1,0,0.2,0.1,0.3c0.2-0.1,0.4-0.2,0.5,0c0.2,0.2,0,0.5-0.2,0.6C9.8,3.9,9.6,3.8,9.4,3.9
	C9.2,4,9.1,4.2,9,4.4c0.1-0.1,0.4-0.3,0.6-0.3C9.8,4.1,9.9,4.3,10,4.3s0.6-0.1,0.4,0.1C10.3,4.5,10.1,4.6,10,4.7
	c0,0.1-0.3-0.1-0.5,0C9.4,4.7,9.4,5,9.3,5.1C9.2,5.3,8.9,5.5,8.8,5.8c0,0.1,0.101,0.3,0,0.4c0,0.2-0.1,0.2-0.3,0.3
	C8.4,6.6,8.2,6.8,8.2,7.1c0,0.3,0.3,0.5,0.3,0.8C8.2,7.9,8.2,7.7,8,7.4c-0.2-0.3-0.5-0.1-0.8,0C7.1,7.5,7,7.6,6.8,7.7
	c-0.2,0-0.1-0.1-0.1-0.2S6.6,7.3,6.5,7.4c-0.1,0-0.1,0.2-0.1,0.3c0,0.5-0.6,1.1,0,1.399C6.7,9.2,7,9.2,7.2,9
	c0.1-0.2,0.3-0.4,0.6-0.4c0,0.2-0.2,0.5-0.2,0.7c0.1,0.2,0.5,0,0.7,0.101c0.3,0.1,0,0.5,0.3,0.699C8.8,10.2,8.2,10.4,7.9,10
	C7.7,9.7,7.5,9.7,7.2,9.6c-0.3-0.1-0.4,0-0.7,0S5.9,9.5,5.7,9.4C5.5,9.3,5.4,9,5.2,8.9C5.1,8.8,5,8.7,4.9,8.6
	C4.8,8.5,4.7,8.4,4.7,8.3C4.5,8.2,4.6,7.7,4.3,7.7c0,0.3,0.2,0.5,0.3,0.7c0.1,0.1,0.1,0.2,0.2,0.3c0,0.1,0.1,0.2,0.1,0.3H4.8
	C4.6,8.9,4.3,8.7,4.2,8.5C4,8.3,3.9,8.1,3.8,7.8C3.7,7.6,3.7,7.3,3.6,7.1C3.4,6.9,3.2,6.7,3.2,6.5S3.3,6,3.3,5.8
	C3.4,5.5,3.3,5.3,3.2,5z M8.7,2.2C8.6,2.2,8.4,2.1,8.3,2.1C8.2,2.1,8.1,2,8.1,2c0.2,0,0.4,0,0.6,0C8.8,2.2,9,2.3,8.7,2.2z"/>
</svg>
