<?xml version="1.0" encoding="utf-8"?>
<!-- Generator: Adobe Illustrator 15.0.0, SVG Export Plug-In . SVG Version: 6.00 Build 0)  -->
<!DOCTYPE svg PUBLIC "-//W3C//DTD SVG 1.1//EN" "http://www.w3.org/Graphics/SVG/1.1/DTD/svg11.dtd">
<svg version="1.1" id="Layer_1" xmlns="http://www.w3.org/2000/svg" xmlns:xlink="http://www.w3.org/1999/xlink" x="0px" y="0px"
	 width="16px" height="16px" viewBox="0 0 16 16" enable-background="new 0 0 16 16" xml:space="preserve">
<path fill="#385072" d="M7.9,16c4,0,7.4-3,7.8-7h-3c-0.5,2-2.5,4-4.9,4c-2.8,0-5-2.2-5-5s2.2-5,5-5C8.9,3,9.9,3,10.8,4h-1
	C9.3,4,9,4.5,9,5.1v1C9,6.6,9.3,7,9.8,7h4h1C15.4,7,16,6.6,16,6.1v-1v-4C16,0.5,15.4,0,14.8,0h-1C13.3,0,13,0.5,13,1.1V2
	c-1-1.1-3.1-1.8-5-1.8c-4.4,0-8,3.5-8,7.9C0,12.4,3.5,16,7.9,16z"/>
</svg>
