<?xml version="1.0" encoding="utf-8"?>
<!-- Generator: Adobe Illustrator 15.0.0, SVG Export Plug-In . SVG Version: 6.00 Build 0)  -->
<!DOCTYPE svg PUBLIC "-//W3C//DTD SVG 1.1//EN" "http://www.w3.org/Graphics/SVG/1.1/DTD/svg11.dtd">
<svg version="1.1" id="Layer_1" xmlns="http://www.w3.org/2000/svg" xmlns:xlink="http://www.w3.org/1999/xlink" x="0px" y="0px"
	 width="16px" height="16px" viewBox="0 0 16 16" enable-background="new 0 0 16 16" xml:space="preserve">
<path fill="#385072" d="M7,0H5.6L0,5.6V7v9h16V0H7z M14,14H2V7h5V2h7V14z M7,13H3v-1h4V13z M7,11H3v-1h4V11z M7,9H3V8h4V9z M10,13H8
	v-1h2V13z M10,11H8v-1h2V11z M10,9H8V8h2V9z M13,13h-2v-1h2V13z M13,11h-2v-1h2V11z M13,9h-2V8h2V9z"/>
</svg>
