<?xml version="1.0" encoding="utf-8"?>
<!-- Generator: Adobe Illustrator 15.0.0, SVG Export Plug-In . SVG Version: 6.00 Build 0)  -->
<!DOCTYPE svg PUBLIC "-//W3C//DTD SVG 1.1//EN" "http://www.w3.org/Graphics/SVG/1.1/DTD/svg11.dtd">
<svg version="1.1" id="Layer_1" xmlns="http://www.w3.org/2000/svg" xmlns:xlink="http://www.w3.org/1999/xlink" x="0px" y="0px"
	 width="16px" height="16px" viewBox="0 0 16 16" enable-background="new 0 0 16 16" xml:space="preserve">
<path fill="#385072" d="M8,0C4,0,0.6,3,0.2,6.9h3c0.5-2.3,2.5-4,4.9-4c2.8,0,5,2.2,5,5c0,2.8-2.199,5-5,5c-1.1,0-2.1-0.4-3-1h1
	c0.6,0,1-0.4,1-1v-1c0-0.601-0.4-1-1-1H2H1c-0.6,0-1,0.399-1,1v1v4c0,0.6,0.4,1,1,1h1c0.6,0,1-0.4,1-1V14c1.4,1.1,3.1,1.8,5,1.8
	c4.4,0,7.9-3.5,7.9-7.9S12.3,0,8,0z"/>
</svg>
