<?xml version="1.0" encoding="utf-8"?>
<!-- Generator: Adobe Illustrator 15.0.0, SVG Export Plug-In . SVG Version: 6.00 Build 0)  -->
<!DOCTYPE svg PUBLIC "-//W3C//DTD SVG 1.1//EN" "http://www.w3.org/Graphics/SVG/1.1/DTD/svg11.dtd">
<svg version="1.1" id="Layer_1" xmlns="http://www.w3.org/2000/svg" xmlns:xlink="http://www.w3.org/1999/xlink" x="0px" y="0px"
	 width="12px" height="12px" viewBox="0 0 12 12" enable-background="new 0 0 12 12" xml:space="preserve">
<path fill="#385072" d="M11,4.1H8.6L9.8,2C10.1,1.5,9.9,0.9,9.4,0.6L8.6,0.1C8.1-0.1,7.5,0,7.2,0.5L6,2.6L4.8,0.5
	C4.5,0,3.9-0.1,3.4,0.1L2.6,0.6C2.1,0.9,1.9,1.5,2.2,2l1.2,2.1H1c-0.5,0-1,0.4-1,1v1c0,0.6,0.5,1,1,1h2.4L2.2,9.2
	C1.9,9.7,2.1,10.3,2.6,10.6L3.4,11c0.5,0.3,1.1,0.1,1.4-0.4l1.2-2L7.2,10.7C7.5,11.2,8.1,11.3,8.6,11.1l0.9-0.5
	C10,10.3,10.1,9.7,9.9,9.2L8.6,7.1H11c0.5,0,1-0.5,1-1v-1C12,4.5,11.5,4.1,11,4.1z M11,6.1H8.6H6.9L9,9.7l-0.9,0.5L6,6.6L3.9,10.2
	L3.1,9.7l2.1-3.6H1v-1h2.4h1.7l-2-3.6L3.9,1L6,4.6L8.1,1L9,1.5L6.9,5.1H11V6.1z"/>
</svg>
