<?xml version="1.0" encoding="utf-8"?>
<!-- Generator: Adobe Illustrator 15.0.0, SVG Export Plug-In . SVG Version: 6.00 Build 0)  -->
<!DOCTYPE svg PUBLIC "-//W3C//DTD SVG 1.1//EN" "http://www.w3.org/Graphics/SVG/1.1/DTD/svg11.dtd">
<svg version="1.1" id="Layer_1" xmlns="http://www.w3.org/2000/svg" xmlns:xlink="http://www.w3.org/1999/xlink" x="0px" y="0px"
	 width="16px" height="16px" viewBox="0 0 16 16" enable-background="new 0 0 16 16" xml:space="preserve">
<path fill="#385072" d="M15.5,13.4L13.4,11.3C13.2,11.1,13,11,12.8,11C13.6,9.8,14,8.4,14,7c0-3.9-3.1-7-7-7C3.1,0,0,3.1,0,7
	c0,1.9,0.7,3.6,2,5c1.3,1.3,3.1,2,5,2c1.4,0,2.8-0.4,3.9-1.2C11,13,11.1,13.2,11.2,13.4l2.1,2.1c0.601,0.6,1.5,0.6,2.101,0
	C16,14.9,16.1,13.9,15.5,13.4z M7,11v1.5V11c-1.1,0-2.1-0.4-2.8-1.2C3.4,9.1,3,8.1,3,7c0-2.2,1.8-4,4-4s4,1.8,4,4
	c0,1.1-0.4,2.1-1.2,2.8C9.1,10.6,8.1,11,7,11z"/>
</svg>
