<?xml version="1.0" encoding="utf-8"?>
<!-- Generator: Adobe Illustrator 15.0.0, SVG Export Plug-In . SVG Version: 6.00 Build 0)  -->
<!DOCTYPE svg PUBLIC "-//W3C//DTD SVG 1.1//EN" "http://www.w3.org/Graphics/SVG/1.1/DTD/svg11.dtd">
<svg version="1.1" id="Layer_1" xmlns="http://www.w3.org/2000/svg" xmlns:xlink="http://www.w3.org/1999/xlink" x="0px" y="0px"
	 width="12px" height="12px" viewBox="0 0 12 12" enable-background="new 0 0 12 12" xml:space="preserve">
<path fill="#385072" d="M12,7v4c0,0.5-0.5,1-1,1h-0.5l0,0H1c-0.5,0-1-0.5-1-1V7c0-0.5,0.5-1,1-1h0.5c0.5,0,1,0.5,1,1v2.5h7V7
	c0-0.5,0.5-1,1-1H11C11.5,6,12,6.5,12,7z M9.9,3.6L6.6,0.3C6.4,0.1,6.2,0,5.9,0C5.7,0,5.4,0.1,5.2,0.3L1.9,3.6C1.5,4,1.5,4.6,1.9,5
	l0.3,0.3c0.4,0.4,1,0.4,1.4,0l1-1.1v2.7c0,0.5,0.5,1,1,1h0.5c0.5,0,1-0.5,1-1V4.2l1,1c0.4,0.4,1,0.4,1.4,0L10,5
	C10.3,4.6,10.3,4,9.9,3.6z"/>
</svg>
