<?xml version="1.0" encoding="utf-8"?>
<!-- Generator: Adobe Illustrator 15.0.0, SVG Export Plug-In . SVG Version: 6.00 Build 0)  -->
<!DOCTYPE svg PUBLIC "-//W3C//DTD SVG 1.1//EN" "http://www.w3.org/Graphics/SVG/1.1/DTD/svg11.dtd">
<svg version="1.1"
	 id="svg3063" inkscape:version="0.48.3.1 r9886" sodipodi:docname="backpack.svg" xmlns:inkscape="http://www.inkscape.org/namespaces/inkscape" xmlns:sodipodi="http://sodipodi.sourceforge.net/DTD/sodipodi-0.dtd" xmlns:svg="http://www.w3.org/2000/svg" xmlns:rdf="http://www.w3.org/1999/02/22-rdf-syntax-ns#" xmlns:cc="http://creativecommons.org/ns#" xmlns:dc="http://purl.org/dc/elements/1.1/"
	 xmlns="http://www.w3.org/2000/svg" xmlns:xlink="http://www.w3.org/1999/xlink" x="0px" y="0px" width="12px" height="12px"
	 viewBox="0 0 12 12" enable-background="new 0 0 12 12" xml:space="preserve">
<sodipodi:namedview  inkscape:window-width="830" inkscape:window-height="592" inkscape:window-x="280" inkscape:window-y="204" inkscape:window-maximized="0" inkscape:current-layer="layer1" showgrid="false" inkscape:cy="4.5052503" inkscape:cx="1.429084" id="base" inkscape:document-units="px" pagecolor="#ffffff" bordercolor="#666666" borderopacity="1.0" inkscape:pageopacity="0.0" inkscape:pageshadow="2" inkscape:zoom="11.2">
	</sodipodi:namedview>
<g id="layer1" transform="translate(0,-1040.3622)" inkscape:groupmode="layer" inkscape:label="Layer 1">
	
		<path id="path3476" inkscape:connector-curvature="0" sodipodi:nodetypes="ccccc" fill="#385072" stroke="#999999" stroke-width="0.629" stroke-linecap="round" stroke-linejoin="round" d="
		M10.543,1048.965c0.395-2.517,0.719-3.667,1.059-5.136c0.829-3.596-2.254-2.818-2.903-2.833l0.448,0.938
		c1.4,0.401,1.806,1.264,0.823,4.858"/>
	<path id="path3468" inkscape:connector-curvature="0" fill="#385072" stroke="#999999" stroke-width="1.215" d="M1.858,1044.313
		c-1.004,0.094-1.874,4.655-0.751,5.85c1.348,1.437,5.25,1.92,6.101,1.629c1.892-0.646,2.795-1.17,2.849-2.235
		c0.082-1.587-0.443-7.532-1.701-7.925"/>
	
		<path id="path3478" inkscape:connector-curvature="0" fill="#385072" stroke="#999999" stroke-width="0.4522" stroke-linecap="round" stroke-linejoin="round" d="
		M3.478,1049.072l-1.121-0.483c-0.111-0.493-0.104-0.585,0.148-0.659l1.183,0.278C3.459,1048.306,3.395,1048.442,3.478,1049.072
		L3.478,1049.072z"/>
	
		<path id="path3480" inkscape:connector-curvature="0" fill="#385072" stroke="#999999" stroke-width="0.4522" stroke-linecap="round" stroke-linejoin="round" d="
		M3.464,1048.14l-1.035-0.253c-0.143-0.315-0.119-0.552,0.139-0.693l1.116,0.239C3.594,1047.526,3.395,1047.557,3.464,1048.14
		L3.464,1048.14z"/>
	
		<path id="path3482" inkscape:connector-curvature="0" fill="#385072" stroke="#999999" stroke-width="0.4522" stroke-linecap="round" stroke-linejoin="round" d="
		M3.604,1047.441l-1.094-0.244c-0.143-0.315-0.128-0.556,0.13-0.698l1.255,0.257C3.809,1046.824,3.184,1046.892,3.604,1047.441z"/>
	
		<path id="path3470" inkscape:connector-curvature="0" fill="#385072" stroke="#999999" stroke-width="1.163" stroke-linejoin="round" d="
		M8.801,1041.848c-1.967-1.03-1.806,1.814-3.807,3.914c-2.1,2.203-3.011-0.63-3.068-0.799c-0.888-2.61,1.188-3.488,2.581-3.878
		C5.859,1040.705,8.323,1040.721,8.801,1041.848z"/>
	<path id="path190" inkscape:connector-curvature="0" fill="#385072" d="M12.071,1048.509c0,2.118-1.636,3.836-3.653,3.836
		c-2.017,0-3.653-1.718-3.653-3.836c0-2.119,1.636-3.837,3.653-3.837C10.436,1044.672,12.071,1046.39,12.071,1048.509"/>
	<path id="path6-1-5" inkscape:connector-curvature="0" sodipodi:nodetypes="ccccccscsssscsc" fill="#385072" d="M11.692,1048.112
		l-2.706-3c-0.309-0.333-0.773-0.333-1.082,0l-2.707,3.083c-0.309,0.333-0.232,0.75,0.232,0.75h1.778v2.501
		c0,0.416,0.387,0.832,0.851,0.832h0.773c0.387,0,0.695-0.416,0.695-0.832v-2.501h1.934
		C11.848,1048.945,12.002,1048.445,11.692,1048.112L11.692,1048.112z"/>
</g>
</svg>
