<?xml version="1.0" encoding="utf-8"?>
<!-- Generator: Adobe Illustrator 15.0.0, SVG Export Plug-In . SVG Version: 6.00 Build 0)  -->
<!DOCTYPE svg PUBLIC "-//W3C//DTD SVG 1.1//EN" "http://www.w3.org/Graphics/SVG/1.1/DTD/svg11.dtd">
<svg version="1.1" id="Layer_1" xmlns="http://www.w3.org/2000/svg" xmlns:xlink="http://www.w3.org/1999/xlink" x="0px" y="0px"
	 width="12px" height="12px" viewBox="0 0 12 12" enable-background="new 0 0 12 12" xml:space="preserve">
<path fill="#385072" d="M6,0C2.7,0,0,2.7,0,6s2.7,6,6,6s6-2.7,6-6S9.3,0,6,0z M6,2.5c0.5,0,1,0.1,1.4,0.3L2.8,7.4
	C2.6,7,2.5,6.5,2.5,6C2.5,4.1,4.1,2.5,6,2.5z M6,9.5c-0.5,0-1-0.1-1.4-0.3l4.6-4.6C9.4,5,9.5,5.5,9.5,6C9.5,7.9,7.9,9.5,6,9.5z"/>
</svg>
