<?xml version="1.0" encoding="utf-8"?>
<!-- Generator: Adobe Illustrator 15.0.0, SVG Export Plug-In . SVG Version: 6.00 Build 0)  -->
<!DOCTYPE svg PUBLIC "-//W3C//DTD SVG 1.1//EN" "http://www.w3.org/Graphics/SVG/1.1/DTD/svg11.dtd">
<svg version="1.1" id="Layer_1" xmlns="http://www.w3.org/2000/svg" xmlns:xlink="http://www.w3.org/1999/xlink" x="0px" y="0px"
	 width="12px" height="12px" viewBox="0 0 12 12" enable-background="new 0 0 12 12" xml:space="preserve">
<path fill="#385072" d="M10,0H1C0.5,0,0,0.5,0,1v10c0,0.5,0.5,1,1,1h9c0.5,0,1-0.5,1-1V1C11,0.5,10.5,0,10,0z M6,5h1v1H6V5z M2,5h1
	v1H2V5z M2,7h1v1H2V7z M3,10H2V9h1V10z M5,10H4V9h1V10z M5,8H4V7h1V8z M5,6H4V5h1V6z M6,7h1v1H6V7z M7,10H6V9h1V10z M9,10H8V7h1V10z
	 M9,6H8V5h1V6z"/>
</svg>
