<?xml version="1.0" encoding="utf-8"?>
<!-- Generator: Adobe Illustrator 15.0.0, SVG Export Plug-In . SVG Version: 6.00 Build 0)  -->
<!DOCTYPE svg PUBLIC "-//W3C//DTD SVG 1.1//EN" "http://www.w3.org/Graphics/SVG/1.1/DTD/svg11.dtd">
<svg version="1.1"
	 id="svg2" inkscape:version="0.48.3.1 r9886" sodipodi:docname="portfolioadd.svg" xmlns:inkscape="http://www.inkscape.org/namespaces/inkscape" xmlns:sodipodi="http://sodipodi.sourceforge.net/DTD/sodipodi-0.dtd" xmlns:svg="http://www.w3.org/2000/svg" xmlns:rdf="http://www.w3.org/1999/02/22-rdf-syntax-ns#" xmlns:cc="http://creativecommons.org/ns#" xmlns:dc="http://purl.org/dc/elements/1.1/"
	 xmlns="http://www.w3.org/2000/svg" xmlns:xlink="http://www.w3.org/1999/xlink" x="0px" y="0px" width="12px" height="12px"
	 viewBox="0 0 12 12" enable-background="new 0 0 12 12" xml:space="preserve">
<sodipodi:namedview  gridtolerance="10" guidetolerance="10" objecttolerance="10" inkscape:window-width="932" inkscape:window-height="719" inkscape:window-x="922" inkscape:window-y="168" inkscape:window-maximized="0" inkscape:current-layer="svg2" showgrid="false" inkscape:cy="4.7957596" inkscape:cx="-39.823493" id="namedview8" pagecolor="#ffffff" bordercolor="#666666" borderopacity="1" inkscape:pageopacity="0" inkscape:pageshadow="2" inkscape:zoom="3.4766083">
	</sodipodi:namedview>
<path id="path6" inkscape:connector-curvature="0" sodipodi:nodetypes="cccccccccccccccc" fill="#385072" d="M5.3,12H0V2.6l0,0
	L2.6,0l0,0H10v3.8l-1-1V1H4v3H1v7h4C5,11.4,5.1,11.7,5.3,12z"/>
<path id="path6-1" inkscape:connector-curvature="0" sodipodi:nodetypes="ccccccscsssscsc" fill="#385072" d="M11.742,8.05
	l-3.5,3.601c-0.399,0.399-1,0.399-1.399,0l-3.5-3.7c-0.4-0.4-0.3-0.9,0.3-0.9h2.3v-3c0-0.5,0.5-1,1.1-1h1c0.5,0,0.9,0.5,0.9,1v3h2.5
	C11.943,7.05,12.143,7.65,11.742,8.05z"/>
</svg>
