<?xml version="1.0" encoding="utf-8"?>
<!-- Generator: Adobe Illustrator 15.0.0, SVG Export Plug-In . SVG Version: 6.00 Build 0)  -->
<!DOCTYPE svg PUBLIC "-//W3C//DTD SVG 1.1//EN" "http://www.w3.org/Graphics/SVG/1.1/DTD/svg11.dtd">
<svg version="1.1" id="Layer_1" xmlns="http://www.w3.org/2000/svg" xmlns:xlink="http://www.w3.org/1999/xlink" x="0px" y="0px"
	 width="12px" height="12px" viewBox="0 0 12 12" enable-background="new 0 0 12 12" xml:space="preserve">
<path fill="#385072" d="M7.5,1v5.7l2.1-2.1c0.4-0.4,1-0.4,1.4,0l0.7,0.7c0.399,0.4,0.399,1,0,1.4l-5,5c-0.4,0.399-1,0.399-1.4,0
	L4.6,11l0,0L0.3,6.7c-0.4-0.4-0.4-1,0-1.4L1,4.6c0.4-0.4,1-0.4,1.4,0l2.1,2.1V1c0-0.5,0.5-1,1-1h1C7,0,7.5,0.5,7.5,1z"/>
</svg>
