<?xml version="1.0" encoding="utf-8"?>
<!-- Generator: Adobe Illustrator 15.0.0, SVG Export Plug-In . SVG Version: 6.00 Build 0)  -->
<!DOCTYPE svg PUBLIC "-//W3C//DTD SVG 1.1//EN" "http://www.w3.org/Graphics/SVG/1.1/DTD/svg11.dtd">
<svg version="1.1" id="Layer_1" xmlns="http://www.w3.org/2000/svg" xmlns:xlink="http://www.w3.org/1999/xlink" x="0px" y="0px"
	 width="12px" height="12px" viewBox="0 0 12 12" enable-background="new 0 0 12 12" xml:space="preserve">
<path fill="#385072" d="M11.9,7C12,6.7,12,6.3,12,6s0-0.7-0.1-1L10.3,4.7C10.2,4.4,10.1,4.1,9.9,3.8L10.8,2.5C10.5,2,10,1.5,9.5,1.1
	L8.1,2C7.9,1.9,7.6,1.8,7.3,1.7L7,0.1C6.7,0,6.3,0,6,0S5.3,0,5,0.1L4.7,1.7C4.4,1.8,4.1,1.9,3.8,2L2.5,1.1C2,1.5,1.5,2,1.1,2.5
	L2,3.8C1.9,4.1,1.8,4.4,1.7,4.7L0.1,5C0,5.3,0,5.7,0,6s0,0.7,0.1,1l1.6,0.3C1.8,7.6,1.9,7.9,2,8.1L1.1,9.5c0.4,0.5,0.9,1,1.4,1.4
	L3.8,10c0.3,0.1,0.6,0.3,0.9,0.4L5,11.9C5.3,12,5.7,12,6,12s0.7,0,1-0.1L7.3,10.3C7.6,10.2,7.9,10.1,8.2,9.9L9.5,10.8
	C10,10.4,10.5,9.9,10.9,9.4L9.9,8.1C10,7.8,10.2,7.5,10.3,7.2L11.9,7z M6,7.5C5.2,7.5,4.5,6.8,4.5,6S5.2,4.5,6,4.5S7.5,5.2,7.5,6
	S6.8,7.5,6,7.5z"/>
</svg>
