<?xml version="1.0" encoding="utf-8"?>
<!-- Generator: Adobe Illustrator 15.0.0, SVG Export Plug-In . SVG Version: 6.00 Build 0)  -->
<!DOCTYPE svg PUBLIC "-//W3C//DTD SVG 1.1//EN" "http://www.w3.org/Graphics/SVG/1.1/DTD/svg11.dtd">
<svg version="1.1" id="Layer_1" xmlns="http://www.w3.org/2000/svg" xmlns:xlink="http://www.w3.org/1999/xlink" x="0px" y="0px"
	 width="12px" height="12px" viewBox="0 0 12 12" enable-background="new 0 0 12 12" xml:space="preserve">
<path fill="#385072" d="M5,9c0,1.2,0.6,2.3,1.4,3H0V8.4l1.7-0.9C2.2,7.3,2.3,6.7,2,6.3c0,0-0.9-1.1-0.9-2.5C1.1,1.7,2.4,0,4,0
	s2.9,1.7,2.9,3.8C6.9,5.2,6,6.3,6,6.3v0.1C5.4,7.1,5,8,5,9z M12,8h-2V6H8v2H6v2h2v2h2v-2h2V8z"/>
</svg>
