<?xml version="1.0" encoding="utf-8"?>
<!-- Generator: Adobe Illustrator 15.0.0, SVG Export Plug-In . SVG Version: 6.00 Build 0)  -->
<!DOCTYPE svg PUBLIC "-//W3C//DTD SVG 1.1//EN" "http://www.w3.org/Graphics/SVG/1.1/DTD/svg11.dtd">
<svg version="1.1" id="Layer_1" xmlns="http://www.w3.org/2000/svg" xmlns:xlink="http://www.w3.org/1999/xlink" x="0px" y="0px"
	 width="12px" height="12px" viewBox="0 0 12 12" enable-background="new 0 0 12 12" xml:space="preserve">
<path fill="#385072" d="M6,0C2.8,0,0,2.6,0,4.2c0,1.6,2.8,4.2,6,4.2s6-2.601,6-4.2C12,2.6,9.2,0,6,0z M2,4.2c0.2-0.4,1.4-1.6,3-2
	c-0.8,0.3-1.3,1.1-1.3,2c0,0.9,0.5,1.7,1.3,2.1C3.4,5.9,2.2,4.7,2,4.2z M5.1,4.1c-0.4,0-0.8-0.3-0.8-0.8s0.3-0.8,0.8-0.8
	s0.8,0.3,0.8,0.8S5.5,4.1,5.1,4.1z M7,6.3c0.8-0.4,1.3-1.2,1.3-2.1c0-0.9-0.5-1.7-1.3-2.1c1.6,0.5,2.8,1.7,3,2.1
	C9.8,4.7,8.6,5.9,7,6.3z"/>
</svg>
