<?xml version="1.0" encoding="utf-8"?>
<!-- Generator: Adobe Illustrator 15.0.0, SVG Export Plug-In . SVG Version: 6.00 Build 0)  -->
<!DOCTYPE svg PUBLIC "-//W3C//DTD SVG 1.1//EN" "http://www.w3.org/Graphics/SVG/1.1/DTD/svg11.dtd">
<svg version="1.1" id="Layer_1" xmlns="http://www.w3.org/2000/svg" xmlns:xlink="http://www.w3.org/1999/xlink" x="0px" y="0px"
	 width="12px" height="12px" viewBox="0 0 12 12" enable-background="new 0 0 12 12" xml:space="preserve">
<path fill="#385072" d="M11,4.5H5.3L7.4,2.4C7.8,2,7.8,1.4,7.4,1L6.7,0.3c-0.4-0.4-1-0.4-1.4,0l-5,5c-0.4,0.4-0.4,1,0,1.4L1,7.4l0,0
	l4.3,4.3c0.4,0.399,1,0.399,1.4,0L7.4,11c0.399-0.4,0.399-1,0-1.4L5.3,7.5H11c0.5,0,1-0.5,1-1v-1C12,4.9,11.5,4.5,11,4.5z"/>
</svg>
