<?xml version="1.0" encoding="utf-8"?>
<!-- Generator: Adobe Illustrator 15.0.0, SVG Export Plug-In . SVG Version: 6.00 Build 0)  -->
<!DOCTYPE svg PUBLIC "-//W3C//DTD SVG 1.1//EN" "http://www.w3.org/Graphics/SVG/1.1/DTD/svg11.dtd">
<svg version="1.1" id="Layer_1" xmlns="http://www.w3.org/2000/svg" xmlns:xlink="http://www.w3.org/1999/xlink" x="0px" y="0px"
	 width="12px" height="12px" viewBox="0 0 12 12" enable-background="new 0 0 12 12" xml:space="preserve">
<path fill="#385072" d="M6.5,0h-1c-1.7,0-3,1.3-3,3v2H1C0.5,5,0,5.5,0,6v5c0,0.6,0.4,1,1,1h10c0.6,0,1-0.4,1-1V9c0,1.7-1.4,3-3,3
	c-1.7,0-3-1.3-3-3s1.3-3,3-3s3,1.3,3,3V6c0-0.5-0.5-1-1-1H9.5V3C9.5,1.3,8.2,0,6.5,0z M7.5,3v2h-3V3c0-0.6,0.5-1,1-1h1
	C7.1,2,7.5,2.4,7.5,3z M11,9v1H9H8V9V7h1v2H11z"/>
</svg>
