<?xml version="1.0" encoding="utf-8"?>
<!-- Generator: Adobe Illustrator 15.0.0, SVG Export Plug-In . SVG Version: 6.00 Build 0)  -->
<!DOCTYPE svg PUBLIC "-//W3C//DTD SVG 1.1//EN" "http://www.w3.org/Graphics/SVG/1.1/DTD/svg11.dtd">
<svg version="1.1" id="Layer_1" xmlns="http://www.w3.org/2000/svg" xmlns:xlink="http://www.w3.org/1999/xlink" x="0px" y="0px"
	 width="12px" height="12px" viewBox="0 0 12 12" enable-background="new 0 0 12 12" xml:space="preserve">
<path fill="#385072" d="M1,12V8C0.4,8,0,7.6,0,7V1c0-0.6,0.4-1,1-1h8c0.6,0,1,0.4,1,1v2H5C4.4,3,4,3.4,4,4v5l0,0L1,12z M11,4H6
	C5.5,4,5,4.5,5,5v3c0,0.5,0.5,1,1,1h2l3,3V9c0.5,0,1-0.5,1-1V5C12,4.5,11.5,4,11,4z"/>
</svg>
