<?xml version="1.0" encoding="utf-8"?>
<!-- Generator: Adobe Illustrator 15.0.0, SVG Export Plug-In . SVG Version: 6.00 Build 0)  -->
<!DOCTYPE svg PUBLIC "-//W3C//DTD SVG 1.1//EN" "http://www.w3.org/Graphics/SVG/1.1/DTD/svg11.dtd">
<svg version="1.1" id="Layer_1" xmlns="http://www.w3.org/2000/svg" xmlns:xlink="http://www.w3.org/1999/xlink" x="0px" y="0px"
	 width="12px" height="12px" viewBox="0 0 12 12" enable-background="new 0 0 12 12" xml:space="preserve">
<path fill="#385072" d="M11,4.5H7.5V1c0-0.5-0.5-1-1-1h-1c-0.5,0-1,0.5-1,1v3.5H1c-0.5,0-1,0.5-1,1v1c0,0.5,0.5,1,1,1h3.5V11
	c0,0.5,0.5,1,1,1h1c0.5,0,1-0.5,1-1V7.5H11c0.6,0,1-0.5,1-1v-1C12,5,11.6,4.5,11,4.5z"/>
</svg>
