<?xml version="1.0" encoding="utf-8"?>
<!-- Generator: Adobe Illustrator 15.0.0, SVG Export Plug-In . SVG Version: 6.00 Build 0)  -->
<!DOCTYPE svg PUBLIC "-//W3C//DTD SVG 1.1//EN" "http://www.w3.org/Graphics/SVG/1.1/DTD/svg11.dtd">
<svg version="1.1" id="Layer_1" xmlns="http://www.w3.org/2000/svg" xmlns:xlink="http://www.w3.org/1999/xlink" x="0px" y="0px"
	 width="12px" height="12px" viewBox="0 0 12 12" enable-background="new 0 0 12 12" xml:space="preserve">
<path fill="#385072" d="M11.4,9.4L9.9,7.9C9.8,7.8,9.7,7.8,9.6,7.7c0.4-0.8,0.7-1.6,0.7-2.5C10.3,2.3,8,0,5.2,0C2.3,0,0,2.3,0,5.2
	c0,2.899,2.3,5.2,5.2,5.2c0.9,0,1.7-0.2,2.399-0.601C7.7,9.8,7.7,9.9,7.8,10l1.5,1.5c0.601,0.6,1.5,0.6,2.101,0
	C12,10.9,12,10,11.4,9.4z M5.2,7.3C4,7.3,3,6.4,3,5.2C3,4,4,3,5.2,3c1.2,0,2.2,1,2.2,2.2C7.3,6.4,6.4,7.3,5.2,7.3z"/>
</svg>
