<?xml version="1.0" encoding="utf-8"?>
<!-- Generator: Adobe Illustrator 15.0.0, SVG Export Plug-In . SVG Version: 6.00 Build 0)  -->
<!DOCTYPE svg PUBLIC "-//W3C//DTD SVG 1.1//EN" "http://www.w3.org/Graphics/SVG/1.1/DTD/svg11.dtd">
<svg version="1.1" id="Layer_1" xmlns="http://www.w3.org/2000/svg" xmlns:xlink="http://www.w3.org/1999/xlink" x="0px" y="0px"
	 width="12px" height="12px" viewBox="0 0 12 12" enable-background="new 0 0 12 12" xml:space="preserve">
<path fill="#385072" d="M7.8,5.6L11,2.4c0.4-0.4,0.4-1,0-1.4l-0.7-0.7C9.9-0.1,9.3-0.1,8.9,0.3L5.6,3.5L2.4,0.3C2-0.1,1.4-0.1,1,0.3
	L0.3,1c-0.4,0.4-0.4,1,0,1.4l3.2,3.2L0.3,8.9c-0.4,0.399-0.4,1,0,1.399L1,11c0.4,0.4,1,0.4,1.4,0l3.2-3.2L8.9,11
	c0.399,0.4,1,0.4,1.399,0l0.7-0.7c0.4-0.399,0.4-1,0-1.399L7.8,5.6z"/>
</svg>
