<?xml version="1.0" encoding="utf-8"?>
<!-- Generator: Adobe Illustrator 15.0.0, SVG Export Plug-In . SVG Version: 6.00 Build 0)  -->
<!DOCTYPE svg PUBLIC "-//W3C//DTD SVG 1.1//EN" "http://www.w3.org/Graphics/SVG/1.1/DTD/svg11.dtd">
<svg version="1.1" id="Layer_1" xmlns="http://www.w3.org/2000/svg" xmlns:xlink="http://www.w3.org/1999/xlink" x="0px" y="0px"
	 width="12px" height="12px" viewBox="0 0 12 12" enable-background="new 0 0 12 12" xml:space="preserve">
<path fill="#385072" d="M12,7v4c0,0.5-0.5,1-1,1h-0.5l0,0H1c-0.5,0-1-0.5-1-1V7c0-0.5,0.5-1,1-1h0.5c0.5,0,1,0.5,1,1v2.5h7V7
	c0-0.5,0.5-1,1-1H11C11.5,6,12,6.4,12,7z M10,3L9.6,2.7C9.2,2.3,8.6,2.3,8.2,2.7l-1,1V1c0-0.5-0.5-1-1-1H5.7c-0.5,0-1,0.5-1,1v2.7
	l-1.1-1c-0.4-0.4-1-0.4-1.4,0L1.9,3c-0.4,0.4-0.4,1,0,1.4l3.3,3.3C5.4,7.9,5.7,8,6,8s0.5-0.1,0.7-0.3L10,4.4C10.4,4,10.4,3.4,10,3z"
	/>
</svg>
