<?xml version="1.0" encoding="utf-8"?>
<!-- Generator: Adobe Illustrator 15.0.0, SVG Export Plug-In . SVG Version: 6.00 Build 0)  -->
<!DOCTYPE svg PUBLIC "-//W3C//DTD SVG 1.1//EN" "http://www.w3.org/Graphics/SVG/1.1/DTD/svg11.dtd">
<svg version="1.1" id="Layer_1" xmlns="http://www.w3.org/2000/svg" xmlns:xlink="http://www.w3.org/1999/xlink" x="0px" y="0px"
	 width="12px" height="12px" viewBox="0 0 12 12" enable-background="new 0 0 12 12" xml:space="preserve">
<path fill="#385072" d="M1,4.5h5.7L4.6,2.4C4.2,2,4.2,1.4,4.6,1l0.7-0.7c0.4-0.4,1-0.4,1.4,0l5,5c0.399,0.4,0.399,1,0,1.4L11,7.4
	l0,0l-4.3,4.3c-0.4,0.399-1,0.399-1.4,0L4.6,11c-0.4-0.4-0.4-1,0-1.4l2.1-2.1H1c-0.5,0-1-0.5-1-1v-1C0,4.9,0.5,4.5,1,4.5z"/>
</svg>
