<?xml version="1.0" encoding="utf-8"?>
<!-- Generator: Adobe Illustrator 15.0.0, SVG Export Plug-In . SVG Version: 6.00 Build 0)  -->
<!DOCTYPE svg PUBLIC "-//W3C//DTD SVG 1.1//EN" "http://www.w3.org/Graphics/SVG/1.1/DTD/svg11.dtd">
<svg version="1.1" id="Layer_1" xmlns="http://www.w3.org/2000/svg" xmlns:xlink="http://www.w3.org/1999/xlink" x="0px" y="0px"
	 width="12px" height="12px" viewBox="0 0 12 12" enable-background="new 0 0 12 12" xml:space="preserve">
<path fill="#385072" d="M11,0H1C0.5,0,0,0.5,0,1v10c0,0.5,0.5,1,1,1h10c0.5,0,1-0.5,1-1V1C12,0.5,11.5,0,11,0z M11,10
	c0,0.5-0.5,1-1,1H2c-0.5,0-1-0.5-1-1V4c0-0.5,0.5-1,1-1h8c0.5,0,1,0.5,1,1V10z M9.8,4.2C9.9,4.3,10,4.4,10,4.5V8
	c0,0.3-0.2,0.5-0.5,0.5h-1C8.2,8.6,8,8.3,8,8.1V6H5.9C5.6,6,5.4,5.8,5.4,5.5v-1C5.4,4.3,5.6,4,5.9,4h3.6C9.6,4,9.7,4.1,9.8,4.2z
	 M6.6,8.5v1c0,0.3-0.2,0.5-0.5,0.5H3.5h-1C2.2,10,2,9.7,2,9.5V6c0-0.3,0.2-0.5,0.5-0.5h1C3.8,5.4,4,5.7,4,5.9V8h2.1
	C6.4,8,6.6,8.2,6.6,8.5z"/>
</svg>
